<?xml version="1.0" standalone="no"?>
<!DOCTYPE svg PUBLIC "-//W3C//DTD SVG 20010904//EN"
 "http://www.w3.org/TR/2001/REC-SVG-20010904/DTD/svg10.dtd">
<svg version="1.0" xmlns="http://www.w3.org/2000/svg"
 width="190.000000pt" height="190.000000pt" viewBox="0 0 190.000000 190.000000"
 preserveAspectRatio="xMidYMid meet">
<metadata>
Created by potrace 1.11, written by Peter Selinger 2001-2013
</metadata>
<g transform="translate(0.000000,190.000000) scale(0.100000,-0.100000)"
fill="#000000" stroke="none">
<path d="M1050 1894 c0 -5 -33 -9 -73 -9 -39 1 -75 -4 -79 -10 -5 -6 -8 -4 -8
5 0 10 -3 11 -8 4 -4 -7 -25 -15 -46 -18 -63 -10 -86 -18 -86 -28 0 -5 -4 -7
-9 -3 -11 6 -61 -15 -61 -26 0 -4 -9 -6 -20 -4 -11 2 -18 0 -15 -5 3 -5 -5
-12 -17 -16 -28 -8 -82 -48 -123 -89 -35 -35 -95 -119 -95 -133 0 -6 -9 -31
-20 -57 -11 -25 -21 -63 -23 -83 -1 -21 -6 -43 -10 -50 -5 -6 -4 -12 1 -12 9
0 10 -28 1 -45 -5 -9 -4 -80 1 -80 2 0 4 -10 5 -22 1 -13 -2 -23 -8 -23 -6 0
-6 -5 0 -12 19 -26 14 -76 -11 -103 -14 -15 -25 -34 -25 -43 -1 -9 -3 -38 -4
-64 -2 -27 -1 -48 2 -48 3 0 7 -14 8 -31 1 -17 7 -37 13 -44 5 -6 7 -14 4 -17
-3 -4 7 -26 22 -50 15 -23 28 -57 29 -75 0 -18 4 -35 8 -39 4 -4 2 -13 -4 -21
-6 -7 -7 -13 -2 -13 5 0 10 -6 11 -12 1 -15 10 -52 12 -55 2 -2 3 -6 4 -11 2
-12 26 -39 86 -98 72 -72 87 -83 94 -76 3 3 6 0 6 -6 0 -7 6 -12 14 -12 8 0
21 -6 28 -13 14 -14 43 -28 68 -33 8 -2 16 -8 18 -14 2 -5 8 -8 13 -4 5 3 9
-1 9 -10 0 -18 -20 -26 -40 -16 -8 4 -26 3 -40 -3 -14 -5 -29 -11 -35 -11 -9
-2 -87 -23 -110 -30 -5 -2 -13 -4 -18 -5 -4 0 -22 -7 -40 -14 -36 -15 -103
-31 -129 -30 -30 1 -28 -25 3 -37 16 -7 29 -17 29 -23 0 -6 3 -7 6 -4 4 3 25
-4 48 -17 45 -26 182 -75 236 -85 19 -3 148 -6 285 -5 233 0 335 7 335 23 0 4
8 7 18 8 27 1 136 45 144 57 4 6 8 8 8 4 0 -4 19 4 43 18 23 13 50 27 60 31
20 6 23 23 5 24 -15 1 -20 2 -108 25 -36 9 -69 20 -75 25 -5 5 -19 9 -31 9
-13 0 -26 5 -29 10 -4 6 -10 8 -15 5 -5 -3 -21 0 -37 6 -15 7 -37 14 -47 16
-11 2 -22 5 -24 8 -2 2 -14 0 -27 -5 -17 -6 -25 -5 -29 5 -6 16 7 27 54 45 45
18 137 77 173 113 16 15 33 27 39 27 6 0 9 3 5 6 -3 3 4 17 16 30 36 39 48 54
41 54 -3 0 -1 6 5 14 12 15 25 83 24 135 -1 20 7 41 18 52 11 11 19 26 19 34
0 8 4 15 9 15 14 0 42 142 39 195 -2 32 -10 55 -24 71 -12 12 -20 24 -18 27 2
2 6 21 8 43 3 21 7 50 10 64 3 14 0 27 -7 32 -7 5 -8 8 -1 8 12 0 12 49 -1 70
-6 9 -4 11 4 5 10 -6 11 -3 2 14 -9 16 -9 21 1 21 9 0 9 3 0 12 -16 16 -15 31
1 22 9 -6 9 -4 1 7 -6 8 -10 24 -9 37 1 12 -2 22 -7 22 -5 0 -7 3 -4 8 6 10
-18 109 -38 152 -34 73 -54 95 -98 105 -14 4 -34 18 -44 33 -24 37 -70 82 -83
82 -6 0 -11 5 -11 11 0 5 -4 7 -10 4 -5 -3 -10 -1 -10 6 0 7 -10 9 -25 7 -13
-3 -22 -1 -19 3 5 9 -17 13 -43 10 -7 -1 -13 2 -13 6 0 4 -17 8 -38 8 -20 0
-43 4 -49 9 -7 4 -13 5 -13 0z"/>
</g>
</svg>
